<svg xmlns="http://www.w3.org/2000/svg" width="200" height="200" viewBox="0 0 200 200"><rect width="100%" height="100%" fill="#DDDDDD"/><path fill="#999999" d="M94.35 52.675h5.34v32.53h-3.11q-.72 0-1.2-.24-.48-.23-.94-.79l-16.98-21.69q.13 1.48.13 2.74v19.98h-5.33v-32.53h3.17q.38 0 .67.03.28.03.49.13.22.1.42.3.2.19.45.5l17.05 21.78q-.07-.78-.11-1.55-.05-.77-.05-1.42zm21.92 9.08q2.56 0 4.67.84 2.1.83 3.6 2.36 1.49 1.53 2.31 3.73.8 2.21.8 4.93 0 2.75-.8 4.95-.82 2.21-2.31 3.76-1.5 1.55-3.6 2.39-2.11.83-4.67.83-2.59 0-4.7-.83-2.12-.84-3.61-2.39-1.5-1.55-2.32-3.76-.82-2.2-.82-4.95 0-2.72.82-4.93.82-2.2 2.32-3.73 1.49-1.53 3.61-2.36 2.11-.84 4.7-.84m0 19.51q2.88 0 4.26-1.93 1.39-1.94 1.39-5.67 0-3.74-1.39-5.69-1.38-1.96-4.26-1.96-2.92 0-4.33 1.97t-1.41 5.68 1.41 5.66q1.41 1.94 4.33 1.94m-68.5 25.41v32.53h-6.08v-32.53zm11.95 32.53h-5.56v-23.09h3.4q1.08 0 1.41 1.02l.36 1.71q.61-.68 1.27-1.24.67-.56 1.42-.97.76-.4 1.62-.64.87-.24 1.9-.24 2.19 0 3.59 1.19 1.41 1.18 2.11 3.14.54-1.15 1.35-1.97t1.77-1.34q.97-.52 2.06-.77t2.2-.25q1.91 0 3.39.59 1.49.59 2.5 1.71 1.01 1.13 1.54 2.74.53 1.63.53 3.72v14.69h-5.56v-14.69q0-2.21-.96-3.32-.97-1.11-2.84-1.11-.85 0-1.59.29-.73.29-1.28.84t-.86 1.38q-.32.84-.32 1.92v14.69h-5.58v-14.69q0-2.32-.93-3.38-.94-1.05-2.74-1.05-1.21 0-2.26.59-1.04.6-1.94 1.63zm44.32-5.96v-3.9q-2.41.12-4.05.42-1.64.31-2.63.78t-1.42 1.1-.43 1.37q0 1.46.87 2.1.87.62 2.26.62 1.71 0 2.96-.61 1.25-.62 2.44-1.88m-11.74-12.13-.99-1.78q3.98-3.64 9.58-3.64 2.03 0 3.62.66 1.6.67 2.7 1.85 1.11 1.18 1.68 2.82t.57 3.6v14.58h-2.52q-.78 0-1.21-.24-.43-.23-.68-.95l-.49-1.67q-.88.79-1.71 1.39-.83.59-1.73 1-.9.4-1.93.62-1.02.21-2.26.21-1.46 0-2.7-.39-1.24-.4-2.14-1.19-.9-.78-1.39-1.95-.5-1.17-.5-2.72 0-.88.3-1.75.29-.86.95-1.65.67-.79 1.72-1.49 1.06-.7 2.6-1.21 1.54-.52 3.59-.85 2.05-.32 4.68-.39v-1.35q0-2.32-.99-3.43t-2.86-1.11q-1.35 0-2.23.31-.89.31-1.57.71l-1.22.71q-.56.31-1.23.31-.59 0-.99-.3-.41-.31-.65-.71m30.82 5.98q1.04 0 1.8-.28.77-.28 1.27-.77.51-.5.77-1.19.26-.7.26-1.53 0-1.71-1.03-2.72-1.02-1-3.07-1t-3.07 1q-1.02 1.01-1.02 2.72 0 .8.25 1.5.26.7.77 1.21.51.5 1.28.78.78.28 1.79.28m6.28 13.14q0-.67-.41-1.1-.4-.42-1.1-.66t-1.63-.35-1.98-.17q-1.05-.05-2.16-.1t-2.17-.18q-.92.52-1.5 1.22-.57.69-.57 1.61 0 .61.3 1.14.31.53.97.91t1.72.6q1.06.21 2.59.21 1.55 0 2.68-.23 1.12-.24 1.85-.66.73-.41 1.07-.99.34-.57.34-1.25m-1.1-23.33h6.63v2.07q0 .99-1.19 1.22l-2.07.38q.47 1.19.47 2.61 0 1.71-.68 3.09-.69 1.39-1.9 2.35-1.22.97-2.87 1.5-1.66.53-3.57.53-.67 0-1.3-.07t-1.24-.18q-1.08.66-1.08 1.46 0 .7.64 1.03t1.7.46 2.41.17q1.35.03 2.76.15 1.42.11 2.77.39t2.41.89q1.06.6 1.7 1.65t.64 2.69q0 1.53-.75 2.97-.76 1.44-2.19 2.57-1.43 1.12-3.51 1.81-2.08.68-4.73.68-2.61 0-4.55-.5-1.93-.51-3.22-1.35-1.28-.85-1.91-1.95t-.63-2.3q0-1.61.98-2.71.98-1.09 2.69-1.74-.92-.47-1.46-1.26t-.54-2.07q0-.52.19-1.07t.56-1.09.93-1.02q.57-.49 1.33-.87-1.75-.94-2.75-2.52-1.01-1.58-1.01-3.69 0-1.71.69-3.09.69-1.39 1.91-2.37 1.23-.97 2.91-1.49 1.67-.52 3.65-.52 1.49 0 2.79.3 1.31.31 2.39.89m14.53 8.1h10.49q0-1.08-.31-2.03-.3-.96-.91-1.68t-1.54-1.14q-.93-.41-2.17-.41-2.41 0-3.79 1.37-1.39 1.37-1.77 3.89m14.18 3.36h-14.29q.13 1.77.63 3.07.49 1.29 1.3 2.13.81.85 1.93 1.26 1.11.42 2.46.42t2.33-.31q.98-.32 1.71-.7t1.28-.7q.55-.31 1.07-.31.7 0 1.04.51l1.59 2.03q-.92 1.08-2.07 1.81-1.14.73-2.39 1.17t-2.54.62q-1.3.18-2.51.18-2.41 0-4.48-.8t-3.6-2.36q-1.53-1.57-2.41-3.87-.88-2.31-.88-5.35 0-2.36.77-4.44.76-2.08 2.19-3.62t3.49-2.44q2.06-.91 4.65-.91 2.18 0 4.02.7 1.85.7 3.18 2.04 1.32 1.34 2.08 3.28.75 1.95.75 4.45 0 1.26-.27 1.7t-1.03.44"/></svg>